<?xml version="1.0" encoding="UTF-8"?>
<svg id="Layer_2" data-name="Layer 2" xmlns="http://www.w3.org/2000/svg" viewBox="0 0 245.79 285.55">
  <defs>
    <style>
      .cls-1 {
        fill: #e14d42;
      }
    </style>
  </defs>
  <g id="Layer_3" data-name="Layer 3">
    <g>
      <g>
        <path class="cls-1" d="M0,227.66s.16-.08.43-.28c-.29.17-.44.27-.43.28Z"/>
        <path class="cls-1" d="M245.79,285.55c-4.03-6.86-46.02-86.71-93.76-145.34-9.2,8.16-19.35,16.21-29.86,23.97,54.71,38.11,118.6,114.62,123.62,121.37Z"/>
        <path class="cls-1" d="M174.49,48.73C132.47,6.7,45.58,59.16,45.58,59.16c0,0,68.85-21.05,79.8,7.5C142.15,110.4,8.97,221.07.43,227.38c5.44-3.17,62.45-32.9,111.54-69.12,10.51-7.76,20.66-15.81,29.86-23.97,34.5-30.58,55.66-62.57,32.66-85.56Z"/>
      </g>
      <ellipse class="cls-1" cx="205.62" cy="27.8" rx="27.84" ry="24.37" transform="translate(153.93 228.74) rotate(-83.27)"/>
    </g>
  </g>
</svg>